<svg xmlns="http://www.w3.org/2000/svg" width="64" height="64" viewBox="0 0 64 64">
  <!-- Fundo circular -->
  <circle cx="32" cy="32" r="30" fill="#0362a1" />
  
  <!-- Borda do círculo -->
  <circle cx="32" cy="32" r="28" fill="none" stroke="#ffffff" stroke-width="2" />
  
  <!-- Peças de quebra-cabeça representando sílabas -->
  <g fill="#ffde59">
    <!-- Peça 1 -->
    <path d="M22,22 L32,22 L32,32 L22,32 Z" />
    
    <!-- Peça 2 -->
    <path d="M34,22 L44,22 L44,32 L34,32 Z" />
    
    <!-- Peça 3 -->
    <path d="M22,34 L32,34 L32,44 L22,44 Z" />
    
    <!-- Peça 4 -->
    <path d="M34,34 L44,34 L44,44 L34,44 Z" />
  </g>
  
  <!-- Conectores entre as peças -->
  <path d="M32,27 L34,27 L34,29 L32,29 Z" fill="#ffffff" />
  <path d="M27,32 L27,34 L29,34 L29,32 Z" fill="#ffffff" />
  <path d="M37,32 L37,34 L39,34 L39,32 Z" fill="#ffffff" />
  <path d="M32,37 L34,37 L34,39 L32,39 Z" fill="#ffffff" />
</svg> 